<svg width="38" height="38" viewBox="0 0 38 38" fill="none" xmlns="http://www.w3.org/2000/svg">
<path d="M35.671 20.5541C36.3732 19.8533 36.7603 18.9211 36.7608 17.929C36.7613 16.937 36.3753 16.0043 35.6738 15.3028C35.3165 14.9455 34.9032 14.6768 34.4616 14.4961L35.9854 12.9781C36.6892 12.2776 37.0775 11.345 37.0786 10.3521C37.0797 9.35907 36.6938 8.42552 35.9916 7.72339L35.9522 7.68393C35.4104 7.14213 34.7406 6.8033 34.0388 6.66753C34.0814 6.44189 34.104 6.21087 34.1042 5.97619C34.1053 4.98335 33.7193 4.04988 33.0172 3.3479L32.9688 3.29947C32.2678 2.59848 31.3359 2.21244 30.3445 2.21244C29.6753 2.21244 29.0333 2.38904 28.471 2.71912C28.2879 2.22331 27.9988 1.76863 27.6144 1.38426L27.5825 1.35218C26.1355 -0.0945063 23.7811 -0.0947342 22.334 1.35226L12.4166 11.2698L13.6485 6.18266C14.1352 4.17265 13.0369 2.12304 11.0938 1.41498C10.0003 1.01647 8.78684 1.10724 7.76466 1.66364C6.74247 2.22004 6.00765 3.18992 5.74857 4.32462L5.57965 5.06477C4.77169 8.60394 3.43615 12.1605 1.61011 15.6352C0.241804 18.239 -0.279323 21.284 0.142748 24.2095C0.579416 27.2363 1.95624 29.9824 4.12445 32.1505C6.78596 34.8121 10.3234 36.2774 14.087 36.2773H14.0966C17.8636 36.2748 21.4032 34.8045 24.0633 32.1373L26.9027 29.2904L35.671 20.5541ZM22.4486 30.5267C20.219 32.7622 17.2523 33.9945 14.0951 33.9966H14.0871C10.9329 33.9966 7.96771 32.7685 5.73709 30.5379C3.91972 28.7206 2.76579 26.4196 2.39998 23.8839C2.04602 21.4304 2.48254 18.8777 3.62902 16.6961C5.54688 13.0466 6.9513 9.30403 7.80312 5.57228L7.97204 4.83222C8.08714 4.32797 8.40073 3.9141 8.85503 3.66681C9.30934 3.41951 9.82727 3.38089 10.3131 3.55787C11.1641 3.86796 11.6452 4.76562 11.432 5.64595L9.24487 14.6775C8.98541 15.6085 10.1848 16.6455 11.1595 15.7522L23.9467 2.96498C24.5045 2.40706 25.4121 2.40721 25.969 2.96391L26.0009 2.99592C26.2711 3.26617 26.4199 3.6253 26.4199 4.00746C26.4199 4.38962 26.271 4.74882 26.0009 5.01908C23.9195 7.10039 20.1863 10.8337 18.1432 12.8767C17.6978 13.322 17.6978 14.044 18.1432 14.4894C18.5885 14.9347 19.3106 14.9347 19.7558 14.4894C21.0182 13.227 28.2705 5.97482 29.3332 4.91219C29.6033 4.64193 29.9625 4.49316 30.3447 4.49316C30.7269 4.49316 31.0861 4.64193 31.3563 4.91219L31.4047 4.96062C31.6754 5.23125 31.8242 5.59106 31.8238 5.97375C31.8233 6.35645 31.6737 6.71595 31.4023 6.98613C28.5431 9.83397 24.6327 13.7275 21.8022 16.5483C21.356 16.9928 21.3546 17.7148 21.7991 18.1611C22.0219 18.3847 22.3143 18.4966 22.6069 18.4966C22.898 18.4966 23.1892 18.3859 23.4116 18.1642C25.3143 16.269 30.4982 11.1051 32.3189 9.29422C32.8767 8.73919 33.7831 8.74025 34.3396 9.29658L34.379 9.33603C34.6497 9.60674 34.7985 9.96655 34.798 10.3493C34.7976 10.7321 34.6479 11.0916 34.3763 11.3619C31.6028 14.1245 27.2103 18.499 24.4612 21.2397C24.0151 21.6843 24.0137 22.4062 24.4582 22.8524C24.681 23.076 24.9735 23.1879 25.266 23.1879C25.5571 23.1879 25.8483 23.0771 26.0708 22.8555L31.2998 17.6462L32.0432 16.9103C32.601 16.3582 33.5063 16.3607 34.0612 16.9154C34.3316 17.1859 34.4803 17.5454 34.4801 17.9277C34.48 18.3101 34.3307 18.6696 34.0606 18.9391L25.2904 27.6773L22.4486 30.5267Z" fill="#09863E"/>
<path d="M34.2954 28.4698C34.5433 27.8909 34.2748 27.2205 33.6959 26.9727C33.1169 26.7248 32.4467 26.9933 32.1988 27.5723C31.8163 28.4658 31.2703 29.271 30.5761 29.9652C29.7279 30.8133 28.7257 31.4341 27.5973 31.8105C26.9998 32.0098 26.677 32.6556 26.8763 33.2531C27.0356 33.7308 27.4805 34.0329 27.9579 34.0329C28.0775 34.0329 28.1991 34.014 28.3189 33.9741C29.7861 33.4847 31.0882 32.6785 32.1888 31.5778C33.0893 30.6772 33.7981 29.6315 34.2954 28.4698Z" fill="#09863E"/>
<path d="M37.3085 29.0989C36.7296 28.8508 36.0592 29.1187 35.8111 29.6976C35.2783 30.9405 34.5185 32.0603 33.553 33.0259C32.43 34.1489 31.109 34.9878 29.6269 35.5191C29.0341 35.7316 28.7258 36.3845 28.9383 36.9774C29.1053 37.4431 29.544 37.7331 30.0118 37.7331C30.1395 37.7331 30.2694 37.7115 30.3966 37.6659C32.1982 37.02 33.8027 36.0014 35.1656 34.6385C36.3373 33.4669 37.2596 32.1069 37.9073 30.5962C38.1554 30.0174 37.8873 29.347 37.3085 29.0989Z" fill="#09863E"/>
</svg>
